HIERARCHY
ROOT Hips
{
	OFFSET -0.001795 -0.223333 0.028219
	CHANNELS 6 Xposition Yposition Zposition Zrotation Yrotation Xrotation 
	JOINT LeftUpLeg
	{
		OFFSET 0.069520 -0.091406 -0.006815
		CHANNELS 3 Zrotation Yrotation Xrotation
		JOINT LeftLeg
		{
			OFFSET 0.034277 -0.375199 -0.004496
			CHANNELS 3 Zrotation Yrotation Xrotation
			JOINT LeftFoot
			{
				OFFSET -0.013596 -0.397961 -0.043693
				CHANNELS 3 Zrotation Yrotation Xrotation
				JOINT LeftToe
				{
					OFFSET 0.026358 -0.055791 0.119288
					CHANNELS 3 Zrotation Yrotation Xrotation
					End Site
					{
						OFFSET 0.000000 0.000000 0.000000
					}
				}
			}
		}
	}
	JOINT RightUpLeg
	{
		OFFSET -0.067670 -0.090522 -0.004320
		CHANNELS 3 Zrotation Yrotation Xrotation
		JOINT RightLeg
		{
			OFFSET -0.038290 -0.382569 -0.008850
			CHANNELS 3 Zrotation Yrotation Xrotation
			JOINT RightFoot
			{
				OFFSET 0.015774 -0.398415 -0.042312
				CHANNELS 3 Zrotation Yrotation Xrotation
				JOINT RightToe
				{
					OFFSET -0.025372 -0.048144 0.123348
					CHANNELS 3 Zrotation Yrotation Xrotation
					End Site
					{
						OFFSET 0.000000 0.000000 0.000000
					}
				}
			}
		}
	}
	JOINT Spine
	{
		OFFSET -0.002533 0.108963 -0.026696
		CHANNELS 3 Zrotation Yrotation Xrotation
		JOINT Spine1
		{
			OFFSET 0.005487 0.135180 0.001092
			CHANNELS 3 Zrotation Yrotation Xrotation
			JOINT Spine2
			{
				OFFSET 0.001457 0.052922 0.025425
				CHANNELS 3 Zrotation Yrotation Xrotation
				JOINT Neck
				{
					OFFSET -0.002778 0.213870 -0.042857
					CHANNELS 3 Zrotation Yrotation Xrotation
					JOINT Head
					{
						OFFSET 0.005152 0.064970 0.051349
						CHANNELS 3 Zrotation Yrotation Xrotation
						End Site
						{
							OFFSET 0.000000 0.000000 0.000000
						}
					}
				}
				JOINT LeftShoulder
				{
					OFFSET 0.078845 0.121749 -0.034090
					CHANNELS 3 Zrotation Yrotation Xrotation
					JOINT LeftArm
					{
						OFFSET 0.090977 0.030469 -0.008868
						CHANNELS 3 Zrotation Yrotation Xrotation
						JOINT LeftForeArm
						{
							OFFSET 0.259612 -0.012772 -0.027456
							CHANNELS 3 Zrotation Yrotation Xrotation
							JOINT LeftHand
							{
								OFFSET 0.249234 0.008986 -0.001171
								CHANNELS 3 Zrotation Yrotation Xrotation
								End Site
								{
									OFFSET 0.000000 0.000000 0.000000
								}
							}
						}
					}
				}
				JOINT RightShoulder
				{
					OFFSET -0.081759 0.118833 -0.038615
					CHANNELS 3 Zrotation Yrotation Xrotation
					JOINT RightArm
					{
						OFFSET -0.096012 0.032551 -0.009143
						CHANNELS 3 Zrotation Yrotation Xrotation
						JOINT RightForeArm
						{
							OFFSET -0.253742 -0.013329 -0.021401
							CHANNELS 3 Zrotation Yrotation Xrotation
							JOINT RightHand
							{
								OFFSET -0.255298 0.007772 -0.005559
								CHANNELS 3 Zrotation Yrotation Xrotation
								End Site
								{
									OFFSET 0.000000 0.000000 0.000000
								}
							}
						}
					}
				}
			}
		}
	}
}
MOTION
Frames: 15
Frame Time: 0.050000
0.171764 0.948780 0.414872 -3.399213 -4.670073 0.374379 0.373571 0.339696 3.699672 -1.992650 0.227322 0.739359 2.880512 7.903465 7.263600 0.000000 0.000000 0.000000 2.793731 3.414608 -25.641945 4.936233 0.177749 41.394306 -4.932800 -14.192330 9.001583 0.000000 0.000000 0.000000 6.050850 -0.228238 1.932128 -1.777157 0.820511 -9.748852 -2.937746 5.320637 18.710749 10.159617 -3.632935 -25.023552 0.000000 0.000000 0.000000 -29.498718 -15.689563 6.898604 -42.320294 -12.361586 -1.728754 14.440860 -24.642828 -2.102853 0.000000 0.000000 0.000000 32.151620 -0.463549 -1.695140 58.046917 0.454229 -7.199126 -15.834428 26.910648 -1.920149 0.000000 0.000000 0.000000 
0.172848 0.946064 0.447560 -3.759499 -2.585870 0.375339 0.598424 0.568850 6.472429 -1.353481 0.168417 -0.634104 1.973874 6.157988 6.326059 0.000000 0.000000 0.000000 3.033281 3.572560 -27.096193 4.525790 -0.255601 27.972713 -4.882005 -14.187608 10.449567 0.000000 0.000000 0.000000 5.772172 -0.256525 2.248813 -0.948662 0.571133 -10.896317 -3.410782 3.839289 19.380146 10.036195 -3.572900 -25.340953 0.000000 0.000000 0.000000 -29.042540 -15.798342 7.058571 -41.946527 -13.501392 -1.432006 13.882832 -27.247957 -2.192196 0.000000 0.000000 0.000000 32.245501 -1.245042 -2.311987 58.455196 -0.294057 -7.640452 -15.194061 27.608216 -1.833720 0.000000 0.000000 0.000000 
0.172561 0.940457 0.482506 -3.898884 -1.597277 1.078557 0.560017 0.766364 8.778266 -0.720086 0.138342 -2.107574 1.688901 5.359134 5.229151 0.000000 0.000000 0.000000 3.297324 3.643764 -27.615799 3.783855 -0.289911 11.567210 -3.900728 -13.296994 16.651323 0.000000 0.000000 0.000000 6.660357 -0.263686 1.900015 -1.819837 0.920131 -12.204621 -3.569133 2.942140 19.978675 10.141732 -3.656380 -25.643795 0.000000 0.000000 0.000000 -28.635151 -15.614641 7.099047 -42.299449 -14.257044 -1.295574 14.573295 -30.213392 -2.586984 0.000000 0.000000 0.000000 32.660545 -2.115721 -3.102884 58.895038 -1.109272 -8.100830 -15.174801 27.968588 -1.857512 0.000000 0.000000 0.000000 
0.170795 0.933299 0.519625 -3.855631 0.270340 1.724786 0.569845 0.852993 10.159608 0.165322 0.043966 -1.749482 1.251772 4.093533 3.724538 0.000000 0.000000 0.000000 3.389507 3.510037 -27.369664 2.471474 -0.252049 0.640081 -2.550822 -11.988827 24.082597 0.000000 0.000000 0.000000 7.035246 -0.230279 1.270954 -1.865740 0.989783 -13.313752 -4.037553 2.326740 20.813073 11.513653 -4.072903 -27.422962 0.000000 0.000000 0.000000 -28.576306 -16.572285 7.539637 -42.607103 -14.676977 -1.157558 15.272302 -32.191675 -2.986886 0.000000 0.000000 0.000000 34.183220 -2.497159 -3.254403 58.930916 -0.766910 -8.105212 -15.914040 27.982311 -1.933363 0.000000 0.000000 0.000000 
0.166896 0.926108 0.560281 -3.870740 2.041140 2.270943 1.034699 0.907168 12.034220 0.871493 -0.019808 -1.718839 0.723059 2.874283 3.102311 0.000000 0.000000 0.000000 3.602905 3.455307 -27.471282 1.530831 -0.187665 -0.763430 -2.024081 -11.520212 28.286910 0.000000 0.000000 0.000000 7.956313 -0.162564 0.237214 -1.889358 1.037484 -12.575529 -4.822080 1.705137 19.892026 11.474769 -3.904131 -27.552848 0.000000 0.000000 0.000000 -29.216686 -16.258727 7.077763 -42.653818 -14.280944 -1.116205 15.254713 -34.267142 -3.248034 0.000000 0.000000 0.000000 35.287294 -2.978049 -3.529854 59.583357 -0.994239 -8.249490 -18.218936 28.469328 -2.430765 0.000000 0.000000 0.000000 
0.160566 0.921643 0.606004 -3.992666 4.406461 2.500620 1.933758 0.823741 13.775397 1.665580 -0.183052 0.273535 0.204565 1.593999 2.379219 0.000000 0.000000 0.000000 3.726990 3.360139 -27.733509 1.252498 -0.081670 2.385731 -2.440352 -11.733862 29.392124 0.000000 0.000000 0.000000 8.105327 -0.148171 -0.107390 -1.485706 0.972764 -13.656373 -4.772295 0.831765 20.533153 12.316088 -3.973426 -29.297060 0.000000 0.000000 0.000000 -30.015176 -16.401463 6.964687 -43.212671 -13.833035 -1.218413 14.807343 -36.412283 -3.351336 0.000000 0.000000 0.000000 35.578367 -4.335086 -4.273640 60.273998 -0.642854 -8.272162 -18.672999 29.523541 -2.528130 0.000000 0.000000 0.000000 
0.151754 0.921893 0.656535 -4.249852 5.279666 3.500110 2.858471 0.667186 14.194842 2.320881 -0.454337 3.805488 -0.342136 1.309234 3.972814 0.000000 0.000000 0.000000 4.386067 3.450464 -27.806704 1.725272 -0.084605 6.049151 -2.981881 -12.006332 27.004206 0.000000 0.000000 0.000000 8.044501 0.017550 -1.912654 -0.457951 0.621017 -12.561027 -5.070878 -0.136449 18.828466 11.545539 -3.624018 -28.876692 0.000000 0.000000 0.000000 -29.945441 -14.150383 5.534856 -43.985890 -12.637651 -1.548008 13.561658 -37.769714 -3.060035 0.000000 0.000000 0.000000 36.363562 -3.981284 -4.378260 59.283740 -1.019211 -8.124025 -18.827171 30.564064 -2.789800 0.000000 0.000000 0.000000 
0.141161 0.926739 0.709093 -4.281978 5.895365 4.455475 4.256813 0.366235 12.732181 1.949445 -0.799196 10.196586 -1.701530 0.842234 8.221232 0.000000 0.000000 0.000000 5.270708 3.457614 -26.648920 2.168998 -0.146338 8.121303 -3.855697 -12.694658 22.776220 0.000000 0.000000 0.000000 8.175460 0.238860 -4.290760 -0.553679 0.641802 -11.548777 -4.226677 -0.222541 17.681687 10.841928 -3.232647 -28.595267 0.000000 0.000000 0.000000 -29.835086 -12.874669 4.540323 -44.460203 -11.349755 -1.886238 12.648042 -38.119962 -2.821494 0.000000 0.000000 0.000000 35.822732 -4.582951 -4.749914 59.420860 -0.825694 -7.921270 -17.889309 29.996413 -2.529516 0.000000 0.000000 0.000000 
0.130395 0.933017 0.760056 -4.822408 5.327460 4.811016 6.417718 0.010362 9.957411 0.707731 -1.089387 19.245930 -3.665293 -0.075673 13.660662 0.000000 0.000000 0.000000 7.165542 3.539426 -24.246137 2.246437 -0.144607 9.071182 -3.842951 -12.459369 19.602908 0.000000 0.000000 0.000000 9.508676 0.379503 -5.468181 -0.524858 0.640002 -12.647139 -4.266261 0.425923 18.487542 9.678238 -2.723619 -27.920219 0.000000 0.000000 0.000000 -28.952835 -11.891936 3.824116 -44.846394 -10.126218 -2.401579 10.233740 -39.435871 -2.084101 0.000000 0.000000 0.000000 34.002811 -4.107001 -4.019303 59.732800 0.046443 -7.609080 -16.200776 30.006659 -2.097843 0.000000 0.000000 0.000000 
0.120916 0.937154 0.805565 -4.900984 4.863322 3.853329 8.348131 -0.228820 5.289480 -0.978188 -1.288362 31.683311 -4.923798 0.546045 19.897817 0.000000 0.000000 0.000000 8.667132 3.088903 -19.467630 1.979152 -0.100646 7.857264 -3.728420 -11.988129 16.588476 0.000000 0.000000 0.000000 9.765873 0.300142 -4.473670 -1.054140 0.830276 -13.664861 -3.349391 1.670122 18.846418 8.594961 -2.012855 -28.022474 0.000000 0.000000 0.000000 -28.553740 -12.505371 3.846485 -44.549092 -10.318432 -2.242043 9.821352 -40.557259 -2.102928 0.000000 0.000000 0.000000 32.911448 -3.878698 -3.280660 59.085818 0.783430 -7.322221 -13.862471 31.382472 -1.546863 0.000000 0.000000 0.000000 
0.113494 0.939908 0.845361 -5.103973 3.794901 2.612800 9.924999 -0.291253 -0.349617 -2.727442 -0.909781 41.795419 -3.467184 3.736647 23.690771 0.000000 0.000000 0.000000 9.989850 2.430447 -14.449688 1.850556 -0.091197 6.167996 -3.200554 -10.896504 14.227704 0.000000 0.000000 0.000000 10.390753 0.170721 -2.978064 -1.722540 1.039074 -14.650637 -2.728077 3.515861 20.061266 9.675679 -2.358952 -28.585757 0.000000 0.000000 0.000000 -27.904653 -12.618010 3.483188 -44.352500 -12.007612 -1.621060 9.361672 -42.425210 -2.157248 0.000000 0.000000 0.000000 32.506201 -3.436844 -2.332148 57.692501 2.785095 -6.520432 -11.747242 33.213702 -0.957610 0.000000 0.000000 0.000000 
0.107169 0.943004 0.880543 -4.704631 1.326275 1.687927 10.341363 -0.207001 -5.868614 -4.258798 0.291620 47.385677 1.291799 8.426127 18.101362 0.000000 0.000000 0.000000 10.202875 1.641682 -9.970939 2.075992 -0.133622 4.572080 -1.897629 -8.539070 12.560869 0.000000 0.000000 0.000000 10.202729 0.028537 -1.411841 -2.335379 1.180889 -15.137769 -1.645224 5.743873 20.508235 9.677060 -2.423504 -27.705281 0.000000 0.000000 0.000000 -28.525244 -12.835659 3.358890 -43.551719 -12.674019 -1.327285 10.327758 -44.817075 -2.767676 0.000000 0.000000 0.000000 32.747709 -2.949769 -1.712672 55.271783 4.705910 -5.634712 -10.853053 35.758936 -0.743646 0.000000 0.000000 0.000000 
0.101704 0.946369 0.912353 -4.127527 -1.805589 1.079967 9.633356 -0.151376 -11.553349 -4.056942 1.015145 49.296894 5.142948 12.584720 10.431616 0.000000 0.000000 0.000000 10.261059 0.909343 -6.160586 1.574441 -0.072791 3.249201 -0.262340 -5.595737 11.584310 0.000000 0.000000 0.000000 9.906653 -0.088423 -0.097949 -3.205719 1.381312 -15.519663 -0.528326 8.361447 20.968439 9.667836 -2.254455 -28.201562 0.000000 0.000000 0.000000 -28.705755 -13.500717 3.571302 -43.449536 -13.610199 -0.977005 12.168254 -46.166358 -3.708389 0.000000 0.000000 0.000000 31.555359 -2.156983 -0.829548 54.811401 6.571313 -4.872482 -9.986994 37.621664 -0.449445 0.000000 0.000000 0.000000 
0.096722 0.948077 0.942043 -3.387702 -5.255766 0.456597 8.107069 -0.215495 -16.475731 -2.616756 1.020221 46.902260 6.896592 15.125514 9.353792 0.000000 0.000000 0.000000 10.201758 0.163065 -2.357226 0.375028 0.028313 1.645948 1.420254 -2.405276 10.602825 0.000000 0.000000 0.000000 9.445185 -0.187521 1.096871 -3.342505 1.335807 -15.406534 -0.196574 10.071687 21.353765 8.638660 -1.906658 -27.269501 0.000000 0.000000 0.000000 -29.927119 -12.658349 3.215925 -42.310795 -13.740860 -1.001216 12.986542 -47.863758 -4.143169 0.000000 0.000000 0.000000 30.973798 -0.671126 0.011210 53.304613 8.261213 -4.061405 -9.324445 39.760212 -0.355588 0.000000 0.000000 0.000000 
0.092312 0.948281 0.970722 -2.961746 -8.621198 0.111457 7.353382 -0.171162 -20.785813 -0.984313 0.663394 41.585536 7.238429 15.392221 8.825614 0.000000 0.000000 0.000000 9.804366 -0.389102 0.563879 -0.157990 0.051819 0.848890 2.953186 0.658640 9.726656 0.000000 0.000000 0.000000 9.542029 -0.292123 2.216820 -4.320874 1.547309 -16.497113 0.466388 11.772157 22.648602 8.758121 -1.936958 -28.101473 0.000000 0.000000 0.000000 -29.746607 -13.132736 3.842255 -42.680285 -14.015362 -1.109942 13.243735 -47.795910 -4.128823 0.000000 0.000000 0.000000 30.506833 -0.334318 0.098341 52.842892 9.924290 -3.412728 -7.538435 40.873313 0.232465 0.000000 0.000000 0.000000 
